<svg width="327" height="52" viewBox="0 0 327 52" fill="none" xmlns="http://www.w3.org/2000/svg">
<rect width="327" height="52" rx="26" fill="black"/>
<path d="M97.3459 20.564C96.7777 21.2358 95.8685 21.7656 94.9593 21.6899C94.8456 20.7816 95.2908 19.8166 95.8117 19.2205C96.3799 18.5298 97.3743 18.0378 98.1794 18C98.2741 18.9461 97.9047 19.8733 97.3459 20.564ZM98.1699 21.8697C96.8534 21.794 95.7264 22.6171 95.1013 22.6171C94.4668 22.6171 93.5103 21.9075 92.4685 21.9264C91.1141 21.9454 89.8545 22.7117 89.1632 23.9322C87.7425 26.3732 88.7938 29.9874 90.1671 31.9743C90.8395 32.9583 91.6445 34.0369 92.7052 33.999C93.7091 33.9612 94.1069 33.3462 95.3192 33.3462C96.5409 33.3462 96.8913 33.999 97.9521 33.9801C99.0507 33.9612 99.742 32.9961 100.414 32.0122C101.182 30.8957 101.494 29.8077 101.513 29.7509C101.494 29.732 99.3916 28.9278 99.3727 26.5057C99.3537 24.481 101.03 23.5159 101.106 23.4592C100.159 22.0589 98.6813 21.9075 98.1699 21.8697Z" fill="white"/>
<path d="M112.466 20.6875H114.81V30.0625H119.685V32H112.466V20.6875ZM124.966 32.1719C124.123 32.1719 123.388 31.9896 122.763 31.625C122.138 31.2604 121.656 30.7474 121.318 30.0859C120.979 29.4193 120.81 28.651 120.81 27.7812C120.81 26.9115 120.977 26.1458 121.31 25.4844C121.649 24.8229 122.13 24.3125 122.755 23.9531C123.386 23.5885 124.123 23.4062 124.966 23.4062C125.81 23.4062 126.547 23.5885 127.177 23.9531C127.807 24.3125 128.292 24.8229 128.63 25.4844C128.969 26.1458 129.138 26.9115 129.138 27.7812C129.138 28.651 128.969 29.4193 128.63 30.0859C128.292 30.7474 127.807 31.2604 127.177 31.625C126.547 31.9896 125.81 32.1719 124.966 32.1719ZM124.982 30.375C125.367 30.375 125.695 30.2656 125.966 30.0469C126.237 29.8229 126.44 29.5156 126.576 29.125C126.711 28.7344 126.779 28.2865 126.779 27.7812C126.779 27.276 126.711 26.8281 126.576 26.4375C126.44 26.0417 126.237 25.7318 125.966 25.5078C125.695 25.2839 125.367 25.1719 124.982 25.1719C124.591 25.1719 124.258 25.2839 123.982 25.5078C123.711 25.7318 123.505 26.0417 123.365 26.4375C123.224 26.8281 123.154 27.276 123.154 27.7812C123.154 28.2812 123.224 28.7292 123.365 29.125C123.505 29.5156 123.711 29.8229 123.982 30.0469C124.258 30.2656 124.591 30.375 124.982 30.375ZM134.404 35.3594C133.633 35.3594 132.961 35.25 132.388 35.0312C131.815 34.8125 131.365 34.5026 131.037 34.1016C130.714 33.7057 130.529 33.2396 130.482 32.7031H132.763C132.826 33.0312 133.003 33.276 133.294 33.4375C133.591 33.6042 133.977 33.6875 134.451 33.6875C135.018 33.6875 135.458 33.5547 135.771 33.2891C136.089 33.0286 136.248 32.6146 136.248 32.0469V30.5H136.138C135.961 30.8906 135.669 31.2188 135.263 31.4844C134.862 31.7448 134.347 31.875 133.716 31.875C133.06 31.875 132.472 31.7214 131.951 31.4141C131.43 31.1016 131.018 30.6328 130.716 30.0078C130.414 29.3828 130.263 28.6146 130.263 27.7031C130.263 26.776 130.417 25.9896 130.724 25.3438C131.031 24.6979 131.445 24.2135 131.966 23.8906C132.492 23.5677 133.076 23.4062 133.716 23.4062C134.357 23.4062 134.873 23.5547 135.263 23.8516C135.654 24.1484 135.945 24.5104 136.138 24.9375H136.232V23.5156H138.529V32.0938C138.529 32.7969 138.354 33.3932 138.005 33.8828C137.656 34.3724 137.172 34.7396 136.552 34.9844C135.932 35.2344 135.216 35.3594 134.404 35.3594ZM134.435 30.1406C135.008 30.1406 135.453 29.9297 135.771 29.5078C136.089 29.0807 136.248 28.4896 136.248 27.7344C136.248 26.9688 136.089 26.3646 135.771 25.9219C135.453 25.474 135.008 25.25 134.435 25.25C133.862 25.25 133.419 25.4766 133.107 25.9297C132.794 26.3776 132.638 26.9792 132.638 27.7344C132.638 28.4792 132.792 29.0677 133.099 29.5C133.412 29.9271 133.857 30.1406 134.435 30.1406ZM140.326 23.5156H142.638V32H140.326V23.5156ZM141.482 22.4062C141.253 22.4062 141.039 22.3542 140.841 22.25C140.649 22.1406 140.495 21.9974 140.38 21.8203C140.271 21.638 140.216 21.4427 140.216 21.2344C140.216 21.0208 140.271 20.8229 140.38 20.6406C140.495 20.4583 140.649 20.3151 140.841 20.2109C141.039 20.1016 141.253 20.0469 141.482 20.0469C141.706 20.0469 141.914 20.1016 142.107 20.2109C142.3 20.3151 142.451 20.4583 142.56 20.6406C142.675 20.8229 142.732 21.0208 142.732 21.2344C142.732 21.4427 142.675 21.638 142.56 21.8203C142.451 21.9974 142.3 22.1406 142.107 22.25C141.914 22.3542 141.706 22.4062 141.482 22.4062ZM146.748 32H144.435V23.5156H146.638V25H146.732C146.93 24.5 147.25 24.1094 147.693 23.8281C148.136 23.5469 148.664 23.4062 149.279 23.4062C149.867 23.4062 150.383 23.5339 150.826 23.7891C151.268 24.0443 151.61 24.4141 151.849 24.8984C152.089 25.3776 152.206 25.9427 152.201 26.5938V32H149.904V27C149.904 26.4792 149.768 26.0703 149.498 25.7734C149.227 25.4766 148.852 25.3281 148.373 25.3281C147.878 25.3281 147.482 25.4844 147.185 25.7969C146.893 26.1094 146.748 26.5417 146.748 27.0938V32ZM157.044 23.5156H159.388L160.716 29.25H160.794L162.185 23.5156H164.482L165.888 29.2188H165.966L167.279 23.5156H169.623L167.294 32H164.857L163.388 26.6094H163.279L161.81 32H159.357L157.044 23.5156ZM170.794 23.5156H173.107V32H170.794V23.5156ZM171.951 22.4062C171.722 22.4062 171.508 22.3542 171.31 22.25C171.117 22.1406 170.964 21.9974 170.849 21.8203C170.74 21.638 170.685 21.4427 170.685 21.2344C170.685 21.0208 170.74 20.8229 170.849 20.6406C170.964 20.4583 171.117 20.3151 171.31 20.2109C171.508 20.1016 171.722 20.0469 171.951 20.0469C172.175 20.0469 172.383 20.1016 172.576 20.2109C172.768 20.3151 172.919 20.4583 173.029 20.6406C173.143 20.8229 173.201 21.0208 173.201 21.2344C173.201 21.4427 173.143 21.638 173.029 21.8203C172.919 21.9974 172.768 22.1406 172.576 22.25C172.383 22.3542 172.175 22.4062 171.951 22.4062ZM179.373 25.25H177.779V29.3906C177.779 29.7031 177.847 29.9219 177.982 30.0469C178.117 30.1719 178.315 30.2396 178.576 30.25C178.909 30.25 179.216 30.2344 179.498 30.2031V32.0312C179.222 32.0833 178.81 32.1094 178.263 32.1094C177.393 32.1094 176.708 31.9089 176.208 31.5078C175.708 31.1068 175.461 30.5104 175.466 29.7188V25.25H174.294V23.5156H175.466V21.4844H177.779V23.5156H179.373V25.25ZM183.326 32H181.013V20.6875H183.263V25H183.357C183.555 24.4948 183.87 24.1042 184.302 23.8281C184.735 23.5469 185.263 23.4062 185.888 23.4062C186.477 23.4062 186.992 23.5339 187.435 23.7891C187.878 24.0443 188.219 24.4115 188.458 24.8906C188.703 25.3698 188.826 25.9375 188.826 26.5938V32H186.513V27C186.513 26.474 186.378 26.0651 186.107 25.7734C185.841 25.4766 185.466 25.3281 184.982 25.3281C184.659 25.3281 184.373 25.3984 184.123 25.5391C183.873 25.6745 183.677 25.875 183.537 26.1406C183.396 26.4062 183.326 26.724 183.326 27.0938V32ZM193.701 32L197.623 20.6875H200.638L204.544 32H202.029L201.177 29.3906H197.083L196.232 32H193.701ZM200.583 27.5625L199.169 23.2344H199.091L197.677 27.5625H200.583ZM205.779 23.5156H208.06V24.9375H208.154C208.347 24.5104 208.638 24.1484 209.029 23.8516C209.419 23.5547 209.935 23.4062 210.576 23.4062C211.216 23.4062 211.797 23.5729 212.318 23.9062C212.839 24.2344 213.25 24.7266 213.552 25.3828C213.86 26.0339 214.013 26.8281 214.013 27.7656C214.013 28.6823 213.862 29.4714 213.56 30.1328C213.263 30.7891 212.854 31.2891 212.333 31.6328C211.818 31.9714 211.232 32.1406 210.576 32.1406C209.945 32.1406 209.432 31.9974 209.037 31.7109C208.646 31.4193 208.352 31.0625 208.154 30.6406H208.091V35.1875H205.779V23.5156ZM208.044 27.75C208.044 28.2604 208.115 28.7083 208.255 29.0938C208.396 29.474 208.602 29.7708 208.873 29.9844C209.143 30.1927 209.466 30.2969 209.841 30.2969C210.419 30.2969 210.865 30.0651 211.177 29.6016C211.495 29.138 211.654 28.5208 211.654 27.75C211.654 26.9896 211.495 26.3828 211.177 25.9297C210.865 25.4766 210.419 25.25 209.841 25.25C209.268 25.25 208.826 25.474 208.513 25.9219C208.201 26.3646 208.044 26.974 208.044 27.75ZM215.513 23.5156H217.794V24.9375H217.888C218.081 24.5104 218.373 24.1484 218.763 23.8516C219.154 23.5547 219.669 23.4062 220.31 23.4062C220.951 23.4062 221.531 23.5729 222.052 23.9062C222.573 24.2344 222.985 24.7266 223.287 25.3828C223.594 26.0339 223.748 26.8281 223.748 27.7656C223.748 28.6823 223.597 29.4714 223.294 30.1328C222.998 30.7891 222.589 31.2891 222.068 31.6328C221.552 31.9714 220.966 32.1406 220.31 32.1406C219.68 32.1406 219.167 31.9974 218.771 31.7109C218.38 31.4193 218.086 31.0625 217.888 30.6406H217.826V35.1875H215.513V23.5156ZM217.779 27.75C217.779 28.2604 217.849 28.7083 217.99 29.0938C218.13 29.474 218.336 29.7708 218.607 29.9844C218.878 30.1927 219.201 30.2969 219.576 30.2969C220.154 30.2969 220.599 30.0651 220.912 29.6016C221.229 29.138 221.388 28.5208 221.388 27.75C221.388 26.9896 221.229 26.3828 220.912 25.9297C220.599 25.4766 220.154 25.25 219.576 25.25C219.003 25.25 218.56 25.474 218.248 25.9219C217.935 26.3646 217.779 26.974 217.779 27.75ZM227.56 32H225.248V20.6875H227.56V32ZM233.201 32.1719C232.341 32.1719 231.597 31.9948 230.966 31.6406C230.341 31.2865 229.86 30.7812 229.521 30.125C229.182 29.4635 229.013 28.6875 229.013 27.7969C229.013 26.9271 229.18 26.1615 229.513 25.5C229.852 24.8333 230.331 24.3177 230.951 23.9531C231.57 23.5885 232.289 23.4062 233.107 23.4062C233.867 23.4062 234.547 23.5677 235.146 23.8906C235.75 24.2083 236.224 24.6901 236.568 25.3359C236.917 25.9818 237.091 26.7708 237.091 27.7031V28.3594H231.294C231.294 28.7812 231.373 29.1484 231.529 29.4609C231.69 29.7734 231.917 30.0156 232.208 30.1875C232.505 30.3542 232.852 30.4375 233.248 30.4375C233.628 30.4375 233.956 30.362 234.232 30.2109C234.508 30.0547 234.706 29.8438 234.826 29.5781H237.029C236.919 30.099 236.695 30.5547 236.357 30.9453C236.018 31.3359 235.578 31.638 235.037 31.8516C234.5 32.0651 233.888 32.1719 233.201 32.1719ZM234.904 26.9062C234.904 26.5677 234.828 26.2656 234.677 26C234.531 25.7292 234.326 25.5182 234.06 25.3672C233.794 25.2161 233.492 25.1406 233.154 25.1406C232.81 25.1406 232.498 25.2188 232.216 25.375C231.94 25.5312 231.719 25.7448 231.552 26.0156C231.391 26.2865 231.305 26.5833 231.294 26.9062H234.904Z" fill="white"/>
</svg>
