<svg width="20" height="20" viewBox="0 0 20 20" fill="none" xmlns="http://www.w3.org/2000/svg">
<path fill-rule="evenodd" clip-rule="evenodd" d="M5.94734 4.4C5.96483 4.4 5.98239 4.4 6 4.4L14.0527 4.4C14.7619 4.39996 15.3729 4.39993 15.8622 4.46571C16.3866 4.53622 16.8893 4.69522 17.2971 5.10294C17.7048 5.51067 17.8638 6.01335 17.9343 6.53777C18.0001 7.0271 18 7.63816 18 8.34735V14.0526C18 14.7618 18.0001 15.3729 17.9343 15.8622C17.8638 16.3866 17.7048 16.8893 17.2971 17.2971C16.8893 17.7048 16.3866 17.8638 15.8622 17.9343C15.3729 18.0001 14.7618 18 14.0526 18H5.94736C5.23816 18 4.6271 18.0001 4.13777 17.9343C3.61336 17.8638 3.11068 17.7048 2.70295 17.2971C2.29522 16.8893 2.13622 16.3866 2.06572 15.8622C1.99993 15.3729 1.99996 14.7619 2 14.0527L2 8.4C2 8.38239 2 8.36483 2 8.34734C1.99996 7.63815 1.99993 7.0271 2.06572 6.53777C2.13622 6.01335 2.29522 5.51067 2.70295 5.10294C3.11068 4.69522 3.61336 4.53622 4.13777 4.46571C4.6271 4.39993 5.23815 4.39996 5.94734 4.4ZM4.35097 6.05145C4.00397 6.0981 3.89522 6.17342 3.83432 6.23432C3.77342 6.29521 3.6981 6.40397 3.65145 6.75096C3.6017 7.12097 3.6 7.62314 3.6 8.4V14C3.6 14.7769 3.6017 15.279 3.65145 15.649C3.6981 15.996 3.77342 16.1048 3.83432 16.1657C3.89522 16.2266 4.00397 16.3019 4.35097 16.3486C4.72097 16.3983 5.22314 16.4 6 16.4H14C14.7769 16.4 15.279 16.3983 15.649 16.3486C15.996 16.3019 16.1048 16.2266 16.1657 16.1657C16.2266 16.1048 16.3019 15.996 16.3486 15.649C16.3983 15.279 16.4 14.7769 16.4 14V8.4C16.4 7.62314 16.3983 7.12097 16.3486 6.75096C16.3019 6.40397 16.2266 6.29521 16.1657 6.23432C16.1048 6.17342 15.996 6.0981 15.649 6.05145C15.279 6.0017 14.7769 6 14 6H6C5.22314 6 4.72097 6.0017 4.35097 6.05145Z" fill="#999DAC"/>
<path d="M2.7998 8.39999C2.7998 6.8915 2.7998 6.13725 3.26843 5.66863C3.73706 5.2 4.49131 5.2 5.9998 5.2H13.9998C15.5083 5.2 16.2625 5.2 16.7312 5.66863C17.1998 6.13725 17.1998 6.8915 17.1998 8.39999H2.7998Z" fill="#999DAC"/>
<path fill-rule="evenodd" clip-rule="evenodd" d="M5.99981 2C6.44163 2 6.7998 2.35817 6.7998 2.8L6.7998 5.2C6.7998 5.64183 6.44163 6 5.9998 6C5.55798 6 5.1998 5.64183 5.19981 5.2L5.19981 2.8C5.19981 2.35817 5.55798 2 5.99981 2Z" fill="#999DAC"/>
<path fill-rule="evenodd" clip-rule="evenodd" d="M13.9998 2C14.4416 2 14.7998 2.35817 14.7998 2.8L14.7998 5.2C14.7998 5.64183 14.4416 6 13.9998 6C13.558 6 13.1998 5.64183 13.1998 5.2L13.1998 2.8C13.1998 2.35817 13.558 2 13.9998 2Z" fill="#999DAC"/>
<path d="M6 10.8C6 10.4229 6 10.2343 6.11716 10.1172C6.23431 10 6.42288 10 6.8 10H8.4C8.77712 10 8.96568 10 9.08284 10.1172C9.2 10.2343 9.2 10.4229 9.2 10.8C9.2 11.1771 9.2 11.3657 9.08284 11.4828C8.96568 11.6 8.77712 11.6 8.4 11.6H6.8C6.42288 11.6 6.23431 11.6 6.11716 11.4828C6 11.3657 6 11.1771 6 10.8Z" fill="#999DAC"/>
<path d="M6 14C6 13.6229 6 13.4343 6.11716 13.3172C6.23431 13.2 6.42288 13.2 6.8 13.2H8.4C8.77712 13.2 8.96568 13.2 9.08284 13.3172C9.2 13.4343 9.2 13.6229 9.2 14C9.2 14.3771 9.2 14.5657 9.08284 14.6828C8.96568 14.8 8.77712 14.8 8.4 14.8H6.8C6.42288 14.8 6.23431 14.8 6.11716 14.6828C6 14.5657 6 14.3771 6 14Z" fill="#999DAC"/>
<path d="M10.7998 10.8C10.7998 10.4229 10.7998 10.2343 10.917 10.1172C11.0341 10 11.2227 10 11.5998 10H13.1998C13.5769 10 13.7655 10 13.8826 10.1172C13.9998 10.2343 13.9998 10.4229 13.9998 10.8C13.9998 11.1771 13.9998 11.3657 13.8826 11.4828C13.7655 11.6 13.5769 11.6 13.1998 11.6H11.5998C11.2227 11.6 11.0341 11.6 10.917 11.4828C10.7998 11.3657 10.7998 11.1771 10.7998 10.8Z" fill="#999DAC"/>
<path d="M10.7998 14C10.7998 13.6229 10.7998 13.4343 10.917 13.3172C11.0341 13.2 11.2227 13.2 11.5998 13.2H13.1998C13.5769 13.2 13.7655 13.2 13.8826 13.3172C13.9998 13.4343 13.9998 13.6229 13.9998 14C13.9998 14.3771 13.9998 14.5657 13.8826 14.6828C13.7655 14.8 13.5769 14.8 13.1998 14.8H11.5998C11.2227 14.8 11.0341 14.8 10.917 14.6828C10.7998 14.5657 10.7998 14.3771 10.7998 14Z" fill="#999DAC"/>
</svg>
