<svg width="24" height="24" viewBox="0 0 24 24" fill="none" xmlns="http://www.w3.org/2000/svg">
<path fill-rule="evenodd" clip-rule="evenodd" d="M14.3687 12.2636C14.7104 12.6151 14.7104 13.1849 14.3687 13.5364L11.4874 16.5L14.3687 19.4636C14.7104 19.8151 14.7104 20.3849 14.3687 20.7364C14.027 21.0879 13.473 21.0879 13.1313 20.7364L9.63129 17.1364C9.28958 16.7849 9.28958 16.2151 9.63129 15.8636L13.1313 12.2636C13.473 11.9121 14.027 11.9121 14.3687 12.2636Z" fill="black"/>
<path fill-rule="evenodd" clip-rule="evenodd" d="M15.5 3.96463C14.1655 3.17214 12.6141 2.85473 11.0863 3.06161C9.55857 3.26849 8.13987 3.9881 7.05026 5.10884C5.96065 6.22958 5.26103 7.68882 5.0599 9.26022C4.85876 10.8316 5.16736 12.4274 5.93783 13.8C6.17946 14.2305 6.7146 14.378 7.1331 14.1294C7.55161 13.8809 7.695 13.3305 7.45337 12.9C6.87552 11.8705 6.64407 10.6737 6.79492 9.49517C6.94577 8.31661 7.47049 7.22219 8.2877 6.38163C9.1049 5.54108 10.1689 5.00137 11.3147 4.84621C12.4606 4.69105 13.6241 4.92911 14.625 5.52347C15.6259 6.11784 16.4081 7.03528 16.8504 8.13352C17.2926 9.23176 17.3702 10.4494 17.0711 11.5976C16.772 12.7459 16.1129 13.7605 15.196 14.4841C14.2791 15.2078 13.1557 15.6 12 15.6C11.5168 15.6 11.125 16.003 11.125 16.5C11.125 16.9971 11.5168 17.4 12 17.4C13.5409 17.4 15.0388 16.877 16.2613 15.9122C17.4838 14.9473 18.3627 13.5945 18.7615 12.0635C19.1603 10.5325 19.0568 8.90901 18.4672 7.44469C17.8775 5.98037 16.8345 4.75711 15.5 3.96463Z" fill="black"/>
</svg>
