<svg width="28" height="28" viewBox="0 0 28 28" fill="none" xmlns="http://www.w3.org/2000/svg">
<rect width="28" height="28" rx="14" fill="#F1F2F7"/>
<path d="M17.3334 9.66667V8.83333C17.3334 6.99239 15.841 5.5 14.0001 5.5V5.5C12.1591 5.5 10.6667 6.99239 10.6667 8.83333V9.66667" stroke="#999DAC" stroke-width="1.2" stroke-linecap="round"/>
<path fill-rule="evenodd" clip-rule="evenodd" d="M7.05332 10.0973C6.5 10.8771 6.5 11.9816 6.5 14.1905C6.5 17.1357 6.5 18.6082 7.23776 19.648C7.49808 20.0149 7.81843 20.3353 8.18531 20.5956C9.22509 21.3333 10.6977 21.3333 13.6429 21.3333H14.3571C17.3023 21.3333 18.7749 21.3333 19.8147 20.5956C20.1816 20.3353 20.5019 20.0149 20.7622 19.648C21.5 18.6082 21.5 17.1357 21.5 14.1905C21.5 11.9816 21.5 10.8771 20.9467 10.0973C20.7514 9.82215 20.5112 9.58189 20.236 9.38665C19.4562 8.83333 18.3517 8.83333 16.1429 8.83333H11.8571C9.64826 8.83333 8.54381 8.83333 7.76399 9.38665C7.48882 9.58189 7.24856 9.82215 7.05332 10.0973ZM14 15.9667C14.718 15.9667 15.3 15.3846 15.3 14.6667C15.3 13.9487 14.718 13.3667 14 13.3667C13.282 13.3667 12.7 13.9487 12.7 14.6667C12.7 15.3846 13.282 15.9667 14 15.9667ZM16.5 14.6667C16.5 15.8406 15.6909 16.8255 14.6 17.0942V18.8333H13.4V17.0942C12.3091 16.8255 11.5 15.8406 11.5 14.6667C11.5 13.286 12.6193 12.1667 14 12.1667C15.3807 12.1667 16.5 13.286 16.5 14.6667Z" fill="#999DAC"/>
</svg>
