<svg width="28" height="28" viewBox="0 0 28 28" fill="none" xmlns="http://www.w3.org/2000/svg">
<path d="M17.3971 26C16.5499 26 15.9145 25.225 16.0807 24.3943L20.1437 4.07918C20.2692 3.45168 20.8202 3 21.4601 3C22.3072 3 22.9426 3.77504 22.7765 4.60574L18.7135 24.9208C18.588 25.5483 18.037 26 17.3971 26ZM4.36326 19.6211C3.65674 19.6211 3.12573 18.9765 3.26098 18.2831C3.36385 17.7556 3.82591 17.375 4.36326 17.375H22.9939C23.7004 17.375 24.2314 18.0196 24.0962 18.713C23.9933 19.2405 23.5312 19.6211 22.9939 19.6211H4.36326ZM7.53992 26C6.69276 26 6.05739 25.225 6.22353 24.3943L10.2865 4.07918C10.412 3.45168 10.963 3 11.6029 3C12.4501 3 13.0855 3.77504 12.9193 4.60574L8.85631 24.9208C8.73081 25.5483 8.17985 26 7.53992 26ZM6.00611 11.625C5.2996 11.625 4.76858 10.9804 4.90384 10.287C5.00671 9.75955 5.46877 9.37891 6.00611 9.37891H24.6367C25.3433 9.37891 25.8743 10.0235 25.739 10.7169C25.6361 11.2444 25.1741 11.625 24.6367 11.625H6.00611Z" fill="#868693"/>
</svg>
