<svg width="22" height="22" viewBox="0 0 22 22" fill="none" xmlns="http://www.w3.org/2000/svg">
<path fill-rule="evenodd" clip-rule="evenodd" d="M2 12.8535L2.70711 12.1464L5.85355 15.2928L5.85355 4.49992C5.85355 4.22378 6.07741 3.99992 6.35355 3.99992C6.6297 3.99992 6.85355 4.22378 6.85355 4.49992L6.85355 15.2928L10 12.1464L10.7071 12.8535L6.35355 17.207L2 12.8535Z" fill="#233067"/>
<path fill-rule="evenodd" clip-rule="evenodd" d="M19.707 8.35355L18.9999 9.06066L15.8535 5.91421L15.8535 16.7071C15.8535 16.9832 15.6296 17.2071 15.3535 17.2071C15.0773 17.2071 14.8535 16.9832 14.8535 16.7071L14.8535 5.91421L11.707 9.06066L10.9999 8.35355L15.3535 4L19.707 8.35355Z" fill="#233067"/>
</svg>
