<svg width="28" height="28" viewBox="0 0 28 28" fill="none" xmlns="http://www.w3.org/2000/svg">
<rect y="-9.53674e-07" width="28" height="28" rx="14" fill="#F1F2F7"/>
<path fill-rule="evenodd" clip-rule="evenodd" d="M21.5 9H6.5V11.5C7.42047 11.5 8.16667 12.2462 8.16667 13.1667V15.6667C8.16667 18.3333 8.16667 19.6666 8.95483 20.5268C9.0138 20.5911 9.07555 20.6529 9.1399 20.7118C10 21.5 11.3334 21.5 14 21.5C16.6666 21.5 18 21.5 18.8601 20.7118C18.9245 20.6529 18.9862 20.5911 19.0452 20.5268C19.8333 19.6666 19.8333 18.3333 19.8333 15.6667V13.1667C19.8333 12.2462 20.5795 11.5 21.5 11.5V9ZM12.5167 13.1667C12.5167 12.8353 12.248 12.5667 11.9167 12.5667C11.5853 12.5667 11.3167 12.8353 11.3167 13.1667V17.3333C11.3167 17.6647 11.5853 17.9333 11.9167 17.9333C12.248 17.9333 12.5167 17.6647 12.5167 17.3333V13.1667ZM16.6833 13.1667C16.6833 12.8353 16.4147 12.5667 16.0833 12.5667C15.752 12.5667 15.4833 12.8353 15.4833 13.1667V17.3333C15.4833 17.6647 15.752 17.9333 16.0833 17.9333C16.4147 17.9333 16.6833 17.6647 16.6833 17.3333V13.1667Z" fill="#999DAC"/>
<path d="M12.3902 6.80883C12.4852 6.72023 12.6944 6.64194 12.9855 6.5861C13.2766 6.53027 13.6332 6.5 14.0001 6.5C14.367 6.5 14.7236 6.53027 15.0147 6.5861C15.3058 6.64194 15.515 6.72023 15.61 6.80883" stroke="#999DAC" stroke-width="1.2" stroke-linecap="round"/>
</svg>
