<svg width="28" height="28" viewBox="0 0 28 28" fill="none" xmlns="http://www.w3.org/2000/svg">
<rect width="28" height="28" rx="14" fill="#F1F2F7"/>
<path d="M19 6.50001V6.50001C20.3807 6.50001 21.5 7.61929 21.5 9.00001L21.5 10.7857C21.5 10.9852 21.5 11.085 21.4719 11.1651C21.4217 11.3088 21.3088 11.4217 21.1651 11.4719C21.085 11.5 20.9852 11.5 20.7857 11.5L16.5 11.5M19 6.50001V6.50001C17.6193 6.50001 16.5 7.61929 16.5 9.00001L16.5 11.5M19 6.50001L10.5 6.50001C8.61438 6.50001 7.67157 6.50001 7.08579 7.08579C6.5 7.67158 6.5 8.61439 6.5 10.5L6.5 21.5L9 20.6667L11.5 21.5L14 20.6667L16.5 21.5L16.5 11.5" stroke="#999DAC" stroke-width="1.3"/>
<path d="M9.83325 9.83334L13.1666 9.83334" stroke="#999DAC" stroke-width="2" stroke-linecap="round"/>
<path d="M10.6667 13.1667H9.83341" stroke="#999DAC" stroke-width="2" stroke-linecap="round"/>
<path d="M9.83325 16.5L12.3333 16.5" stroke="#999DAC" stroke-width="2" stroke-linecap="round"/>
</svg>
