<svg width="24" height="24" viewBox="0 0 24 24" fill="none" xmlns="http://www.w3.org/2000/svg">
<path fill-rule="evenodd" clip-rule="evenodd" d="M0.87868 0.87868C2.05025 -0.292893 3.94975 -0.292893 5.12132 0.87868L23.1213 18.8787C24.2929 20.0503 24.2929 21.9497 23.1213 23.1213C21.9497 24.2929 20.0503 24.2929 18.8787 23.1213L0.87868 5.12132C-0.292893 3.94975 -0.292893 2.05025 0.87868 0.87868Z" fill="#233067"/>
<path fill-rule="evenodd" clip-rule="evenodd" d="M23.1213 0.87868C21.9497 -0.292893 20.0503 -0.292893 18.8787 0.87868L0.878679 18.8787C-0.292892 20.0503 -0.292892 21.9497 0.878679 23.1213C2.05025 24.2929 3.94975 24.2929 5.12132 23.1213L23.1213 5.12132C24.2929 3.94975 24.2929 2.05025 23.1213 0.87868Z" fill="#233067"/>
</svg>
