<svg width="28" height="28" viewBox="0 0 28 28" fill="none" xmlns="http://www.w3.org/2000/svg">
<path fill-rule="evenodd" clip-rule="evenodd" d="M3.50489 3.50474C2.33331 4.67632 2.33331 6.56194 2.33331 10.3332V17.6665C2.33331 21.4377 2.33331 23.3234 3.50489 24.4949C4.67646 25.6665 6.56208 25.6665 10.3333 25.6665H17.6666C21.4379 25.6665 23.3235 25.6665 24.4951 24.4949C25.6666 23.3234 25.6666 21.4377 25.6666 17.6665V10.3332C25.6666 7.34413 25.6666 5.53962 25.0833 4.33634V19.8332C24.9918 19.8332 24.946 19.8332 24.9019 19.8322C23.9023 19.8101 22.9473 19.4145 22.2249 18.7233C22.193 18.6928 22.1606 18.6605 22.0959 18.5957L21.2189 17.7188C20.1519 16.6518 19.6184 16.1183 18.9722 16.0184C18.7697 15.9871 18.5636 15.9871 18.3611 16.0184C17.7149 16.1183 17.1814 16.6518 16.1144 17.7188L15.9824 17.8508L15.9824 17.8508L15.9823 17.8508C15.1362 18.6969 14.7131 19.12 14.2466 19.0775C14.1805 19.0715 14.1152 19.0589 14.0516 19.04C13.6027 18.9062 13.367 18.3562 12.8956 17.2563L12.8956 17.2563L12.8273 17.0969L12.8273 17.0969C11.7728 14.6365 11.2456 13.4063 10.2036 13.2056C9.16152 13.005 8.21511 13.9514 6.3223 15.8442L4.08331 18.0832V3.05322C3.87186 3.18007 3.68036 3.32927 3.50489 3.50474Z" fill="#868693"/>
<path d="M3.33331 10.3335C3.33331 8.41961 3.33544 7.08479 3.47084 6.07766C3.60238 5.09929 3.84298 4.58119 4.21199 4.21218C4.58101 3.84316 5.09911 3.60256 6.07747 3.47103C7.08461 3.33562 8.41943 3.3335 10.3333 3.3335H17.6666C19.5805 3.3335 20.9153 3.33562 21.9225 3.47103C22.9009 3.60256 23.4189 3.84316 23.788 4.21218C24.157 4.58119 24.3976 5.09929 24.5291 6.07766C24.6645 7.08479 24.6666 8.41961 24.6666 10.3335V17.6668C24.6666 19.5807 24.6645 20.9155 24.5291 21.9227C24.3976 22.901 24.157 23.4191 23.788 23.7882C23.4189 24.1572 22.9009 24.3978 21.9225 24.5293C20.9154 24.6647 19.5805 24.6668 17.6666 24.6668H10.3333C8.41943 24.6668 7.08461 24.6647 6.07747 24.5293C5.09911 24.3978 4.58101 24.1572 4.21199 23.7881C3.84298 23.4191 3.60238 22.901 3.47084 21.9227C3.33544 20.9155 3.33331 19.5807 3.33331 17.6668V10.3335Z" stroke="#868693" stroke-width="2"/>
<ellipse cx="17.5" cy="10.4998" rx="2.33333" ry="2.33333" fill="#868693"/>
</svg>
