<svg width="37" height="20" viewBox="0 0 37 20" fill="none" xmlns="http://www.w3.org/2000/svg">
<g clip-path="url(#clip0_1023_5803)">
<path d="M8.288 4.07352C8.48327 4.61663 7.12596 6.54466 5.11049 6.54466C4.01672 6.54466 3.12915 6.29212 3.12915 5.50054C3.12915 4.92348 4.03038 4.1577 5.08181 3.85899C6.2261 3.53448 7.97394 3.20183 8.288 4.07352Z" fill="#CACACA"/>
<path d="M5.34411 8.05884C5.63974 8.05884 5.87939 7.84608 5.87939 7.58362C5.87939 7.32116 5.63974 7.1084 5.34411 7.1084C5.04849 7.1084 4.80884 7.32116 4.80884 7.58362C4.80884 7.84608 5.04849 8.05884 5.34411 8.05884Z" fill="#CACACA"/>
<path d="M9.62084 4.63998C9.8878 4.63998 10.1042 4.45518 10.1042 4.22722C10.1042 3.99925 9.8878 3.81445 9.62084 3.81445C9.35387 3.81445 9.13745 3.99925 9.13745 4.22722C9.13745 4.45518 9.35387 4.63998 9.62084 4.63998Z" fill="#CACACA"/>
<path d="M12.1318 4.75246C11.4449 4.76196 10.4686 5.00093 9.7285 5.17201C8.9884 5.34173 7.8687 5.84818 7.3935 6.28131C6.85003 6.77554 6.63019 7.24397 6.44858 7.65131C6.26697 8.05864 6.1072 8.55694 6.07307 9.25891C6.03893 9.96088 6.44858 10.8108 6.44858 10.8108C6.44858 10.8108 6.81043 11.4191 7.00707 11.6228C7.2037 11.8265 7.54507 12.1143 7.86187 12.2121C8.17866 12.3098 8.57056 12.3872 9.01435 12.2759C9.45813 12.1659 9.68754 12.0518 10.0084 11.8156C10.3293 11.5793 10.7567 11.1123 11.1664 10.7986C11.576 10.485 12.7804 9.73685 12.7804 9.73685C12.7804 9.73685 14.1923 8.96427 14.6702 8.73752C15.1482 8.51078 16.5724 7.8767 16.754 7.80881C16.754 7.80881 16.926 7.71512 17.0366 7.66081C17.195 7.58342 17.3575 7.3526 17.4176 7.19781C17.5036 6.97649 17.4354 6.74703 17.3575 6.63705C17.2797 6.52707 16.9643 6.39944 16.7676 6.30575C16.7676 6.30575 15.9907 5.97038 15.708 5.83461C15.4254 5.69883 14.5637 5.32273 14.1514 5.15843C13.7881 5.01315 12.6302 4.74431 12.129 4.7511L12.1318 4.75246Z" fill="#CACACA"/>
<path d="M13.8373 9.72936C14.7467 9.22563 17.0858 8.09868 17.3071 8.0593C17.5283 8.01992 17.5296 8.42183 17.632 8.99888C17.7345 9.57593 17.6908 9.93167 17.632 10.3241C17.5583 10.8169 17.4559 11.5814 17.404 12.2141C17.3521 12.8468 17.1145 14.3159 16.9944 14.8658C16.8278 15.6289 16.6243 16.2535 16.4195 16.7287C16.2147 17.2039 15.7709 17.6126 15.48 17.8502C15.1892 18.0878 14.6252 18.3091 14.1473 18.3431C13.6694 18.377 12.9511 18.1394 12.3708 17.8841C11.7904 17.6289 11.1241 17.1876 10.7991 16.9323C10.4741 16.6771 10.2529 16.1679 10.104 15.7769C9.95521 15.3858 9.9634 14.673 9.97842 14.4015C10.0071 13.8869 10.1491 13.1442 10.2406 12.7816C10.3239 12.4517 10.4017 12.077 10.6106 11.8706C11.2989 11.1917 13.0754 10.1503 13.8373 9.72936Z" fill="#CACACA"/>
<path d="M10.0985 12.5387C10.0985 12.5387 10.2133 12.7546 10.272 12.684C10.4235 12.5021 10.5437 12.3867 10.5437 12.3867C10.5437 12.3867 10.8004 12.1042 11.0216 11.8775C11.2428 11.6507 12.3885 10.8469 12.9524 10.5129C13.5164 10.1789 15.4813 9.12529 15.8569 8.93927C15.8569 8.93927 16.7854 8.46948 16.9438 8.37851C17.1022 8.28754 17.4599 8.16398 17.4599 8.16398C17.4599 8.16398 17.6675 7.97118 17.6593 7.94538C17.6511 7.91959 17.3439 7.67383 17.3439 7.67383L13.6106 9.33846L10.2624 11.6915L9.91284 12.7193L10.1013 12.5414L10.0985 12.5387Z" fill="#CACACA"/>
<path d="M17.9803 9.61026C17.9353 8.9531 17.7072 8.29051 17.6731 7.87774C17.6471 7.56274 17.6581 7.08209 17.841 6.62316C17.8602 6.57428 17.8397 6.51997 17.7932 6.49553C17.2716 6.20768 14.4505 4.66661 12.9444 4.11535C12.1087 3.80986 10.2584 3.23552 8.8465 3.07666C8.02311 2.98433 6.50058 3.04543 5.79461 3.06987C4.92889 3.1011 3.17559 3.4161 2.40135 3.63063C1.43458 3.89947 0.725885 4.45751 0.578412 5.40931C0.510137 5.85059 0.825567 6.49553 1.24341 7.07123C1.57249 7.52608 2.29894 8.43307 2.69766 8.78474C3.09639 9.1364 3.43776 9.54373 3.71086 9.92798C3.71086 9.92798 4.51924 11.0033 4.73635 11.2532C4.9521 11.5016 5.43958 12.0461 6.04587 12.4195C6.67263 12.8051 7.09593 12.9898 7.47008 13.0834C7.7623 13.1568 8.25251 13.1106 8.58569 12.9965C8.85333 12.9056 9.10048 12.797 9.21519 12.744C9.2384 12.7331 9.26298 12.7562 9.25206 12.7793C9.15374 13.0115 8.95165 13.7515 8.83694 14.1398C8.70312 14.5865 8.542 15.2287 8.63212 15.8153C8.73863 16.5023 8.9612 17.1717 9.39407 17.7189C9.88974 18.3475 10.481 18.8676 10.9221 19.1554C11.3549 19.4392 12.2766 19.7786 12.7901 19.8805C12.7901 19.8805 14.1446 20.0502 14.6922 19.9823C15.2384 19.9144 15.8542 19.8357 16.253 19.6198C16.6517 19.4052 16.9931 19.1323 17.187 18.5784C17.3809 18.023 17.5625 17.412 17.5516 16.687C17.5516 16.687 17.8479 11.7162 17.882 11.1839C17.9161 10.6517 18.0295 10.2661 17.9844 9.61026H17.9803ZM9.6262 3.81257C9.89384 3.81257 10.1096 3.99723 10.1096 4.22533C10.1096 4.45344 9.89247 4.6381 9.6262 4.6381C9.35993 4.6381 9.14282 4.45344 9.14282 4.22533C9.14282 3.99723 9.35993 3.81257 9.6262 3.81257ZM5.35083 8.05969C5.05588 8.05969 4.81555 7.84652 4.81555 7.58447C4.81555 7.32242 5.05588 7.10924 5.35083 7.10924C5.64577 7.10924 5.8861 7.32242 5.8861 7.58447C5.8861 7.84652 5.64577 8.05969 5.35083 8.05969ZM5.11733 6.54441C4.02356 6.54441 3.13599 6.29186 3.13599 5.50028C3.13599 4.92323 4.03722 4.15745 5.08865 3.85874C6.23294 3.53423 7.98078 3.20157 8.29484 4.07326C8.49011 4.61637 7.1328 6.54441 5.11733 6.54441ZM9.01992 12.2769C8.57613 12.3869 8.18287 12.3109 7.86744 12.2131C7.55201 12.1154 7.20927 11.8275 7.01264 11.6238C6.81601 11.4202 6.45415 10.8119 6.45415 10.8119C6.45415 10.8119 6.0445 9.96193 6.07864 9.25996C6.11277 8.55799 6.27254 8.05969 6.45415 7.65235C6.63576 7.24502 6.85697 6.77659 7.39907 6.28236C7.87427 5.84923 8.99398 5.34278 9.73408 5.17306C10.4742 5.00334 11.4505 4.76301 12.1374 4.75351C12.6385 4.74672 13.7964 5.01556 14.1597 5.16084C14.5707 5.32513 15.4337 5.69988 15.7163 5.83565C15.9976 5.97143 16.7759 6.3068 16.7759 6.3068C16.9726 6.40049 17.288 6.52812 17.3658 6.6381C17.4423 6.74808 17.5106 6.97754 17.4259 7.19886C17.3658 7.35364 17.2034 7.58447 17.045 7.66186C16.9343 7.71617 16.7623 7.80986 16.7623 7.80986C16.5807 7.87774 15.1565 8.51182 14.6785 8.73857C14.2006 8.96532 12.7887 9.73789 12.7887 9.73789C12.7887 9.73789 11.5843 10.4847 11.1747 10.7997C10.765 11.1147 10.3458 11.5722 10.0167 11.8166C9.69584 12.0543 9.46644 12.167 9.02265 12.2769H9.01992ZM17.6389 10.3245C17.5652 10.8173 17.4628 11.5817 17.4109 12.2145C17.359 12.8472 17.1214 14.3163 17.0013 14.8662C16.8347 15.6293 16.6312 16.2538 16.4264 16.7291C16.2216 17.2043 15.7778 17.613 15.4869 17.8506C15.1961 18.0882 14.6321 18.3095 14.1542 18.3435C13.6763 18.3774 12.958 18.1398 12.3777 17.8845C11.7973 17.6293 11.131 17.188 10.806 16.9327C10.481 16.6775 10.2598 16.1683 10.111 15.7773C9.96348 15.3862 9.97031 14.6734 9.98533 14.4018C10.014 13.8872 10.156 13.1445 10.2475 12.782C10.3308 12.4521 10.4086 12.0773 10.6176 11.871C11.3058 11.1921 13.0823 10.1507 13.8442 9.72975C14.7536 9.22601 17.0927 8.09906 17.314 8.05969C17.5365 8.02031 17.5365 8.42221 17.6389 8.99927C17.7414 9.57632 17.6977 9.93206 17.6389 10.3245Z" fill="#CACACA"/>
<path d="M28.7118 4.07352C28.5165 4.61663 29.8738 6.54466 31.8893 6.54466C32.983 6.54466 33.8706 6.29212 33.8706 5.50054C33.8706 4.92348 32.9694 4.1577 31.918 3.85899C30.7737 3.53448 29.0258 3.20183 28.7118 4.07352Z" fill="#CACACA"/>
<path d="M31.6559 8.05884C31.9515 8.05884 32.1912 7.84608 32.1912 7.58362C32.1912 7.32116 31.9515 7.1084 31.6559 7.1084C31.3603 7.1084 31.1206 7.32116 31.1206 7.58362C31.1206 7.84608 31.3603 8.05884 31.6559 8.05884Z" fill="#CACACA"/>
<path d="M27.3791 4.63998C27.6461 4.63998 27.8625 4.45518 27.8625 4.22722C27.8625 3.99925 27.6461 3.81445 27.3791 3.81445C27.1122 3.81445 26.8958 3.99925 26.8958 4.22722C26.8958 4.45518 27.1122 4.63998 27.3791 4.63998Z" fill="#CACACA"/>
<path d="M24.8678 4.75246C25.5546 4.76196 26.531 5.00093 27.2711 5.17201C28.0112 5.34173 29.1309 5.84818 29.6061 6.28131C30.1495 6.77554 30.3694 7.24397 30.551 7.65131C30.7326 8.05864 30.8924 8.55694 30.9265 9.25891C30.9606 9.96088 30.551 10.8108 30.551 10.8108C30.551 10.8108 30.1891 11.4191 29.9925 11.6228C29.7959 11.8265 29.4545 12.1143 29.1377 12.2121C28.8209 12.3098 28.429 12.3872 27.9852 12.2759C27.5414 12.1659 27.312 12.0518 26.9911 11.8156C26.6702 11.5793 26.2428 11.1123 25.8332 10.7986C25.4236 10.485 24.2192 9.73685 24.2192 9.73685C24.2192 9.73685 22.8073 8.96427 22.3293 8.73752C21.8514 8.51078 20.4272 7.8767 20.2456 7.80881C20.2456 7.80881 20.0735 7.71512 19.9629 7.66081C19.8045 7.58342 19.642 7.3526 19.582 7.19781C19.4959 6.97649 19.5642 6.74703 19.642 6.63705C19.7199 6.52707 20.0353 6.39944 20.2319 6.30575C20.2319 6.30575 21.0089 5.97038 21.2916 5.83461C21.5742 5.69883 22.4358 5.32273 22.8482 5.15843C23.2114 5.01315 24.3694 4.74431 24.8705 4.7511L24.8678 4.75246Z" fill="#CACACA"/>
<path d="M23.1624 9.72936C22.2529 9.22563 19.9138 8.09868 19.6926 8.0593C19.4714 8.01992 19.4701 8.42183 19.3676 8.99888C19.2652 9.57593 19.3089 9.93167 19.3676 10.3241C19.4414 10.8169 19.5438 11.5814 19.5957 12.2141C19.6476 12.8468 19.8852 14.3159 20.0053 14.8658C20.1719 15.6289 20.3754 16.2535 20.5802 16.7287C20.785 17.2039 21.2288 17.6126 21.5197 17.8502C21.8105 18.0878 22.3745 18.3091 22.8524 18.3431C23.3303 18.377 24.0486 18.1394 24.6289 17.8841C25.2092 17.6289 25.8756 17.1876 26.2006 16.9323C26.5256 16.6771 26.7468 16.1679 26.8956 15.7769C27.0445 15.3858 27.0363 14.673 27.0213 14.4015C26.9926 13.8869 26.8506 13.1442 26.7591 12.7816C26.6758 12.4517 26.598 12.077 26.389 11.8706C25.7008 11.1917 23.9243 10.1503 23.1624 9.72936Z" fill="#CACACA"/>
<path d="M26.9011 12.5387C26.9011 12.5387 26.7864 12.7546 26.7277 12.684C26.5761 12.5021 26.4559 12.3867 26.4559 12.3867C26.4559 12.3867 26.1992 12.1042 25.978 11.8775C25.7568 11.6507 24.6111 10.8469 24.0472 10.5129C23.4832 10.1789 21.5183 9.12529 21.1428 8.93927C21.1428 8.93927 20.2142 8.46948 20.0558 8.37851C19.8974 8.28754 19.5397 8.16398 19.5397 8.16398C19.5397 8.16398 19.3321 7.97118 19.3403 7.94538C19.3485 7.91959 19.6558 7.67383 19.6558 7.67383L23.389 9.33846L26.7372 11.6915L27.0868 12.7193L26.8984 12.5414L26.9011 12.5387Z" fill="#CACACA"/>
<path d="M19.1218 11.1849C19.1559 11.7172 19.4522 16.688 19.4522 16.688C19.4413 17.413 19.6229 18.024 19.8168 18.5793C20.0107 19.1347 20.3521 19.4062 20.7508 19.6208C21.1496 19.8353 21.764 19.9154 22.3116 19.9833C22.8578 20.0512 24.2137 19.8814 24.2137 19.8814C24.7258 19.7796 25.6489 19.4402 26.0817 19.1564C26.5228 18.8685 27.1141 18.3472 27.6097 17.7199C28.0412 17.1727 28.2652 16.5019 28.3717 15.8163C28.4618 15.2297 28.3007 14.5875 28.1669 14.1408C28.0508 13.7525 27.8501 13.0138 27.7517 12.7803C27.7422 12.7572 27.7654 12.7341 27.7886 12.745C27.9019 12.7966 28.1491 12.9066 28.4181 12.9975C28.7513 13.1102 29.2415 13.1578 29.5337 13.0844C29.9065 12.9907 30.3312 12.8047 30.9579 12.4205C31.5642 12.0471 32.0517 11.5026 32.2674 11.2542C32.4832 11.0057 33.2929 9.92897 33.2929 9.92897C33.566 9.54336 33.9074 9.13603 34.3061 8.78572C34.7049 8.43406 35.4299 7.52707 35.7604 7.07222C36.1782 6.49652 36.4937 5.85158 36.4254 5.4103C36.2779 4.45986 35.5692 3.90046 34.6038 3.63298C33.8296 3.41845 32.0749 3.10209 31.2105 3.07222C30.5046 3.04642 28.9821 2.98668 28.1587 3.079C26.7467 3.23786 24.8965 3.8122 24.0608 4.1177C22.5533 4.66896 19.7322 6.21139 19.2119 6.49788C19.1669 6.52367 19.145 6.57799 19.1641 6.62551C19.3471 7.08443 19.358 7.56509 19.3321 7.88009C19.2979 8.29285 19.0699 8.95545 19.0248 9.61261C18.9798 10.2698 19.0931 10.654 19.1273 11.1863L19.1218 11.1849ZM27.8569 4.22632C27.8569 4.45443 27.6398 4.63909 27.3735 4.63909C27.1072 4.63909 26.8901 4.45443 26.8901 4.22632C26.8901 3.99822 27.1072 3.81356 27.3735 3.81356C27.6398 3.81356 27.8569 3.99822 27.8569 4.22632ZM31.115 7.58274C31.115 7.32069 31.3553 7.10752 31.6502 7.10752C31.9452 7.10752 32.1855 7.32069 32.1855 7.58274C32.1855 7.84479 31.9452 8.05796 31.6502 8.05796C31.3553 8.05796 31.115 7.84479 31.115 7.58274ZM28.7062 4.07289C29.0189 3.2012 30.7681 3.5325 31.9124 3.85837C32.9652 4.15708 33.8651 4.92286 33.8651 5.49991C33.8651 6.29285 32.9775 6.54404 31.8837 6.54404C29.8683 6.54404 28.511 4.616 28.7062 4.07289ZM26.9857 11.8163C26.6552 11.5719 26.2374 11.1129 25.8278 10.7993C25.4181 10.4857 24.2137 9.73752 24.2137 9.73752C24.2137 9.73752 22.8018 8.96495 22.3239 8.7382C21.846 8.51145 20.4217 7.87737 20.2401 7.80949C20.2401 7.80949 20.0681 7.7158 19.9575 7.66149C19.7991 7.5841 19.6366 7.35327 19.5765 7.19849C19.4905 6.97717 19.5588 6.74771 19.6366 6.63773C19.7131 6.52775 20.0299 6.40012 20.2265 6.30643C20.2265 6.30643 21.0034 5.97106 21.2861 5.83528C21.5674 5.69951 22.4304 5.3234 22.8428 5.16047C23.206 5.01519 24.3639 4.74635 24.8651 4.75314C25.5519 4.76264 26.5283 5.00161 27.2684 5.17269C28.0085 5.34241 29.1282 5.84886 29.6034 6.28199C30.1468 6.77622 30.3667 7.24465 30.5483 7.65198C30.7299 8.05932 30.8897 8.55762 30.9238 9.25959C30.9579 9.96156 30.5483 10.8115 30.5483 10.8115C30.5483 10.8115 30.1864 11.4198 29.9898 11.6235C29.7932 11.8271 29.4518 12.115 29.135 12.2127C28.8196 12.3105 28.4263 12.3879 27.9825 12.2766C27.5387 12.1666 27.3093 12.0525 26.9884 11.8163H26.9857ZM19.3608 8.99889C19.4632 8.42184 19.4632 8.01994 19.6857 8.05932C19.9083 8.09869 22.2461 9.227 23.1555 9.72938C23.9174 10.1503 25.6926 11.1917 26.3821 11.8706C26.5911 12.077 26.6689 12.4517 26.7522 12.7817C26.8437 13.1442 26.9857 13.8855 27.0144 14.4015C27.0294 14.673 27.0376 15.3872 26.8887 15.7769C26.7413 16.1679 26.5187 16.6771 26.1937 16.9324C25.8687 17.1876 25.2024 17.6289 24.622 17.8842C24.0417 18.1394 23.3234 18.377 22.8455 18.3431C22.3676 18.3091 21.8036 18.0878 21.5128 17.8502C21.2219 17.6126 20.7781 17.2053 20.5733 16.7287C20.3685 16.2535 20.165 15.6289 19.9984 14.8658C19.8783 14.3159 19.6393 12.8468 19.5888 12.2141C19.5383 11.5814 19.4345 10.8183 19.3608 10.3241C19.302 9.93168 19.2583 9.57731 19.3608 8.99889Z" fill="#CACACA"/>
<path d="M23.0368 0.837757C22.9563 0.837757 22.8539 0.896141 22.7979 0.970818C22.7856 0.987112 22.7706 0.999332 22.7501 1.00476C21.8693 1.24645 20.9326 2.0421 19.9631 3.37408C19.4524 4.07605 19.0592 4.76036 18.853 5.14054C18.8325 5.17856 18.7874 5.19621 18.7451 5.18399C18.6632 5.16226 18.573 5.15004 18.4802 5.15004C18.4146 5.15004 18.2958 5.18942 18.2631 5.13239C17.9695 4.6178 17.0546 1.73524 15.3805 0.37204C15.3627 0.358463 15.3559 0.336738 15.3559 0.313656C15.3559 0.215896 15.2986 0.0964125 15.2303 0.0434593C15.1361 -0.0298605 15.0009 -0.0149249 14.9258 0.0787614C14.8521 0.172448 14.9121 0.300078 15.0064 0.373398C15.0692 0.422278 15.1566 0.464369 15.2303 0.460296C15.2535 0.460296 15.2767 0.461653 15.2945 0.476589C16.888 1.77326 17.8616 4.35303 18.1306 5.1419C18.1443 5.18127 18.1238 5.22336 18.0869 5.24237C17.8466 5.36593 17.6977 5.59404 17.8084 5.83844C17.8425 5.91176 17.8725 6.00544 17.9026 6.10727C17.9408 6.23491 17.9135 6.37068 17.837 6.4793C17.71 6.65717 17.5994 6.89207 17.5694 7.06043C17.5243 7.32112 17.5462 7.81943 17.6377 8.31773C17.7292 8.81603 17.9231 9.3252 17.9681 9.69994C18.0132 10.0733 18.0132 11.7162 18.0023 12.2363C17.9913 12.7576 17.9449 14.9206 17.979 15.2492C18.0132 15.5777 18.1047 15.9511 18.1729 16.0869C18.2412 16.2227 18.36 16.3245 18.4966 16.3245C18.6331 16.3245 18.7519 16.2227 18.8202 16.0869C18.8885 15.9511 18.98 15.5777 19.0141 15.2492C19.0482 14.9206 19.0032 12.7576 18.9909 12.2363C18.98 11.7149 18.98 10.0733 19.025 9.69994C19.0701 9.32656 19.264 8.81603 19.3555 8.31773C19.447 7.81943 19.4688 7.32112 19.4237 7.06043C19.3937 6.89207 19.2831 6.65717 19.1561 6.4793C19.0796 6.37068 19.0523 6.23491 19.0906 6.10727C19.1206 6.00544 19.1506 5.91176 19.1848 5.83844C19.2817 5.62391 19.1902 5.42296 18.9977 5.29397C18.9677 5.2736 18.9554 5.23694 18.9731 5.20436C19.462 4.30551 21.0186 1.67279 22.7269 1.15004C22.7556 1.1419 22.787 1.14597 22.8088 1.16634C22.8662 1.21793 22.9631 1.24645 23.0396 1.24645C23.1543 1.24645 23.2471 1.15412 23.2471 1.04006C23.2471 0.926012 23.1543 0.833683 23.0396 0.833683L23.0368 0.837757Z" fill="#CACACA"/>
</g>
<defs>
<clipPath id="clip0_1023_5803">
<rect width="35.8621" height="20" fill="white" transform="translate(0.568848)"/>
</clipPath>
</defs>
</svg>
