<svg width="263" height="146" viewBox="0 0 263 146" fill="none" xmlns="http://www.w3.org/2000/svg">
<g clip-path="url(#clip0_683_2457)">
<path d="M56.8945 29.7354C58.321 33.7001 48.4049 47.7748 33.6803 47.7748C25.6895 47.7748 19.2051 45.9312 19.2051 40.1526C19.2051 35.9401 25.7892 30.3499 33.4708 28.1693C41.8307 25.8004 54.6 23.3721 56.8945 29.7354Z" fill="#FFE658"/>
<path d="M35.3862 58.8264C37.5459 58.8264 39.2968 57.2732 39.2968 55.3573C39.2968 53.4414 37.5459 51.8882 35.3862 51.8882C33.2264 51.8882 31.4756 53.4414 31.4756 55.3573C31.4756 57.2732 33.2264 58.8264 35.3862 58.8264Z" fill="#FFE658"/>
<path d="M66.6309 33.8686C68.5813 33.8686 70.1624 32.5196 70.1624 30.8555C70.1624 29.1913 68.5813 27.8423 66.6309 27.8423C64.6805 27.8423 63.0994 29.1913 63.0994 30.8555C63.0994 32.5196 64.6805 33.8686 66.6309 33.8686Z" fill="#FFE658"/>
<path d="M84.9768 34.691C79.9589 34.7604 72.826 36.5049 67.419 37.7537C62.012 38.9927 53.8317 42.6898 50.3601 45.8516C46.3896 49.4595 44.7835 52.8791 43.4567 55.8526C42.1298 58.8261 40.9627 62.4637 40.7133 67.5881C40.4639 72.7125 43.4567 78.9172 43.4567 78.9172C43.4567 78.9172 46.1003 83.3577 47.5368 84.8444C48.9734 86.3312 51.4674 88.4325 53.7818 89.1461C56.0963 89.8598 58.9594 90.4248 62.2016 89.612C65.4438 88.8091 67.1197 87.9765 69.4641 86.2519C71.8085 84.5273 74.931 81.1176 77.9238 78.828C80.9166 76.5384 89.7154 71.077 89.7154 71.077C89.7154 71.077 100.031 65.4372 103.522 63.782C107.014 62.1267 117.419 57.4979 118.746 57.0023C118.746 57.0023 120.003 56.3184 120.811 55.922C121.968 55.357 123.155 53.672 123.594 52.5421C124.222 50.9264 123.724 49.2514 123.155 48.4485C122.586 47.6457 120.282 46.714 118.845 46.03C118.845 46.03 113.169 43.5818 111.104 42.5907C109.039 41.5995 102.744 38.8539 99.7313 37.6546C97.0777 36.5941 88.6181 34.6315 84.9569 34.6811L84.9768 34.691Z" fill="#FFE658"/>
<path d="M97.4368 71.0278C104.081 67.3505 121.17 59.1237 122.786 58.8363C124.402 58.5489 124.412 61.4827 125.16 65.6952C125.908 69.9077 125.589 72.5046 125.16 75.3691C124.621 78.9671 123.873 84.5474 123.494 89.1662C123.115 93.7851 121.379 104.51 120.501 108.524C119.284 114.094 117.798 118.654 116.301 122.123C114.805 125.592 111.563 128.575 109.438 130.31C107.313 132.044 103.193 133.66 99.7014 133.908C96.2098 134.156 90.9624 132.421 86.7226 130.558C82.4828 128.694 77.6145 125.473 75.2402 123.61C72.8659 121.746 71.2498 118.029 70.1624 115.175C69.075 112.32 69.1349 107.116 69.2446 105.134C69.4541 101.378 70.4916 95.9558 71.16 93.3094C71.7686 90.9008 72.3372 88.1652 73.8635 86.6586C78.8914 81.7027 91.8702 74.1004 97.4368 71.0278Z" fill="#FFE658"/>
<path d="M70.1226 91.5348C70.1226 91.5348 70.9606 93.1107 71.3896 92.5953C72.4969 91.2672 73.3748 90.4247 73.3748 90.4247C73.3748 90.4247 75.2503 88.363 76.8664 86.7078C78.4825 85.0525 86.8524 79.1847 90.9725 76.7465C95.0926 74.3082 109.448 66.6166 112.191 65.2587C112.191 65.2587 118.975 61.8293 120.132 61.1652C121.29 60.5011 123.903 59.5991 123.903 59.5991C123.903 59.5991 125.42 58.1917 125.36 58.0033C125.3 57.815 123.055 56.021 123.055 56.021L95.7809 68.1728L71.3197 85.3498L68.7659 92.853L70.1426 91.5546L70.1226 91.5348Z" fill="#696969"/>
<path d="M127.704 70.1554C127.375 65.3581 125.709 60.5212 125.459 57.508C125.27 55.2085 125.35 51.6997 126.687 48.3496C126.826 47.9927 126.677 47.5963 126.337 47.4179C122.527 45.3166 101.916 34.0667 90.9126 30.0426C84.8072 27.8124 71.2897 23.6198 60.9745 22.4601C54.959 21.7861 43.8358 22.2321 38.6782 22.4105C32.3534 22.6385 19.5442 24.938 13.8878 26.5041C6.82476 28.4666 1.64721 32.5403 0.569798 39.4885C0.0709973 42.7098 2.37546 47.4179 5.42812 51.6204C7.83233 54.9409 13.1396 61.5619 16.0526 64.1291C18.9656 66.6962 21.4596 69.6697 23.4548 72.4748C23.4548 72.4748 29.3606 80.3249 30.9468 82.1486C32.523 83.9625 36.0844 87.9371 40.5137 90.6628C45.0927 93.4777 48.1853 94.8257 50.9187 95.5097C53.0536 96.0449 56.635 95.7079 59.0691 94.8753C61.0244 94.2112 62.8301 93.4183 63.6681 93.0317C63.8377 92.9524 64.0172 93.1209 63.9374 93.2894C63.2192 94.9843 61.7427 100.386 60.9047 103.221C59.9271 106.482 58.7499 111.17 59.4083 115.452C60.1864 120.467 61.8125 125.354 64.9749 129.348C68.5962 133.937 72.9158 137.734 76.1381 139.835C79.3005 141.907 86.0343 144.384 89.7853 145.128C89.7853 145.128 99.6815 146.367 103.682 145.871C107.672 145.376 112.171 144.801 115.084 143.225C117.997 141.659 120.491 139.666 121.908 135.622C123.325 131.569 124.651 127.108 124.572 121.815C124.572 121.815 126.736 85.5285 126.986 81.6431C127.235 77.7577 128.063 74.9428 127.734 70.1554H127.704ZM66.6709 27.8323C68.6262 27.8323 70.2024 29.1803 70.2024 30.8454C70.2024 32.5106 68.6162 33.8586 66.6709 33.8586C64.7255 33.8586 63.1393 32.5106 63.1393 30.8454C63.1393 29.1803 64.7255 27.8323 66.6709 27.8323ZM35.436 58.8362C33.2811 58.8362 31.5254 57.2801 31.5254 55.3671C31.5254 53.4541 33.2811 51.898 35.436 51.898C37.5908 51.898 39.3466 53.4541 39.3466 55.3671C39.3466 57.2801 37.5908 58.8362 35.436 58.8362ZM33.7301 47.7747C25.7393 47.7747 19.2549 45.9311 19.2549 40.1526C19.2549 35.9401 25.839 30.3498 33.5206 28.1693C41.8805 25.8003 54.6498 23.372 56.9442 29.7353C58.3708 33.7 48.4547 47.7747 33.7301 47.7747ZM62.2415 89.6221C58.9993 90.4249 56.1262 89.8699 53.8217 89.1562C51.5173 88.4426 49.0133 86.3413 47.5768 84.8545C46.1402 83.3678 43.4966 78.9273 43.4966 78.9273C43.4966 78.9273 40.5038 72.7225 40.7532 67.5982C41.0026 62.4738 42.1698 58.8362 43.4966 55.8627C44.8234 52.8892 46.4395 49.4696 50.4 45.8617C53.8716 42.6999 62.052 39.0028 67.459 37.7638C72.866 36.5249 79.9988 34.7705 85.0167 34.7011C88.6779 34.6515 97.1376 36.6141 99.7912 37.6746C102.794 38.8739 109.099 41.6096 111.164 42.6008C113.219 43.5919 118.905 46.0401 118.905 46.0401C120.342 46.724 122.646 47.6557 123.215 48.4586C123.774 49.2614 124.272 50.9365 123.654 52.5521C123.215 53.6821 122.028 55.3671 120.871 55.9321C120.062 56.3285 118.805 57.0124 118.805 57.0124C117.479 57.508 107.074 62.1368 103.582 63.7921C100.09 65.4473 89.7753 71.0871 89.7753 71.0871C89.7753 71.0871 80.9764 76.5386 77.9836 78.8381C74.9908 81.1376 71.9282 84.4779 69.524 86.262C67.1796 87.9965 65.5037 88.8192 62.2615 89.6221H62.2415ZM125.21 75.369C124.671 78.9669 123.923 84.5473 123.544 89.1661C123.165 93.785 121.429 104.51 120.551 108.524C119.334 114.094 117.848 118.654 116.351 122.123C114.855 125.592 111.613 128.575 109.488 130.31C107.363 132.044 103.243 133.66 99.7513 133.908C96.2597 134.156 91.0123 132.421 86.7725 130.558C82.5327 128.694 77.6644 125.473 75.2901 123.609C72.9158 121.746 71.2997 118.029 70.2123 115.175C69.1349 112.32 69.1848 107.116 69.2945 105.134C69.504 101.377 70.5415 95.9557 71.2099 93.3092C71.8185 90.9007 72.3871 88.165 73.9134 86.6585C78.9413 81.7026 91.9201 74.1003 97.4867 71.0276C104.131 67.3504 121.22 59.1236 122.836 58.8362C124.462 58.5488 124.462 61.4826 125.21 65.6951C125.958 69.9076 125.639 72.5045 125.21 75.369Z" fill="black"/>
<path d="M206.106 29.7354C204.679 33.7001 214.595 47.7748 229.32 47.7748C237.311 47.7748 243.795 45.9312 243.795 40.1526C243.795 35.9401 237.211 30.3499 229.529 28.1693C221.169 25.8004 208.4 23.3721 206.106 29.7354Z" fill="#FFE658"/>
<path d="M227.614 58.8264C229.774 58.8264 231.525 57.2732 231.525 55.3573C231.525 53.4414 229.774 51.8882 227.614 51.8882C225.454 51.8882 223.703 53.4414 223.703 55.3573C223.703 57.2732 225.454 58.8264 227.614 58.8264Z" fill="#FFE658"/>
<path d="M196.369 33.8686C198.319 33.8686 199.9 32.5196 199.9 30.8555C199.9 29.1913 198.319 27.8423 196.369 27.8423C194.419 27.8423 192.837 29.1913 192.837 30.8555C192.837 32.5196 194.419 33.8686 196.369 33.8686Z" fill="#FFE658"/>
<path d="M178.023 34.691C183.041 34.7604 190.174 36.5049 195.581 37.7537C200.988 38.9927 209.168 42.6898 212.64 45.8516C216.61 49.4595 218.216 52.8791 219.543 55.8526C220.87 58.8261 222.037 62.4637 222.287 67.5881C222.536 72.7125 219.543 78.9172 219.543 78.9172C219.543 78.9172 216.9 83.3577 215.463 84.8444C214.026 86.3312 211.532 88.4325 209.218 89.1461C206.904 89.8598 204.041 90.4248 200.798 89.612C197.556 88.8091 195.88 87.9765 193.536 86.2519C191.191 84.5273 188.069 81.1176 185.076 78.828C182.083 76.5384 173.284 71.077 173.284 71.077C173.284 71.077 162.969 65.4372 159.478 63.782C155.986 62.1267 145.581 57.4979 144.254 57.0023C144.254 57.0023 142.997 56.3184 142.189 55.922C141.032 55.357 139.845 53.672 139.406 52.5421C138.777 50.9264 139.276 49.2514 139.845 48.4485C140.414 47.6457 142.718 46.714 144.155 46.03C144.155 46.03 149.831 43.5818 151.896 42.5907C153.961 41.5995 160.256 38.8539 163.269 37.6546C165.922 36.5941 174.382 34.6315 178.043 34.6811L178.023 34.691Z" fill="#FFE658"/>
<path d="M165.563 71.0278C158.919 67.3505 141.83 59.1237 140.214 58.8363C138.598 58.5489 138.588 61.4827 137.84 65.6952C137.091 69.9077 137.411 72.5046 137.84 75.3691C138.378 78.9671 139.127 84.5474 139.506 89.1662C139.885 93.7851 141.621 104.51 142.498 108.524C143.716 114.094 145.202 118.654 146.698 122.123C148.195 125.592 151.437 128.575 153.562 130.31C155.687 132.044 159.807 133.66 163.298 133.908C166.79 134.156 172.037 132.421 176.277 130.558C180.517 128.694 185.385 125.473 187.76 123.61C190.134 121.746 191.75 118.029 192.837 115.175C193.925 112.32 193.865 107.116 193.755 105.134C193.546 101.378 192.508 95.9558 191.84 93.3094C191.231 90.9008 190.663 88.1652 189.136 86.6586C184.108 81.7027 171.13 74.1004 165.563 71.0278Z" fill="#FFE658"/>
<path d="M192.877 91.5348C192.877 91.5348 192.039 93.1107 191.61 92.5953C190.503 91.2672 189.625 90.4247 189.625 90.4247C189.625 90.4247 187.75 88.363 186.134 86.7078C184.517 85.0525 176.148 79.1847 172.027 76.7465C167.907 74.3082 153.552 66.6166 150.808 65.2587C150.808 65.2587 144.025 61.8293 142.868 61.1652C141.71 60.5011 139.097 59.5991 139.097 59.5991C139.097 59.5991 137.58 58.1917 137.64 58.0033C137.7 57.815 139.945 56.021 139.945 56.021L167.219 68.1728L191.68 85.3498L194.234 92.853L192.857 91.5546L192.877 91.5348Z" fill="#696969"/>
<path d="M136.044 81.6532C136.293 85.5386 138.458 121.825 138.458 121.825C138.378 127.118 139.705 131.579 141.122 135.633C142.538 139.686 145.032 141.669 147.945 143.235C150.858 144.801 155.348 145.386 159.348 145.881C163.338 146.377 173.245 145.138 173.245 145.138C176.986 144.395 183.729 141.917 186.892 139.845C190.114 137.744 194.434 133.938 198.055 129.358C201.207 125.364 202.843 120.468 203.622 115.462C204.28 111.18 203.103 106.492 202.125 103.231C201.277 100.396 199.811 95.0043 199.092 93.2995C199.023 93.131 199.192 92.9625 199.362 93.0418C200.19 93.4184 201.995 94.2213 203.961 94.8854C206.395 95.708 209.976 96.0549 212.111 95.5197C214.835 94.8358 217.937 93.4779 222.516 90.6729C226.945 87.9471 230.507 83.9725 232.083 82.1587C233.659 80.3448 239.575 72.4848 239.575 72.4848C241.57 69.6699 244.064 66.6963 246.977 64.1391C249.89 61.572 255.188 54.9509 257.602 51.6305C260.654 47.4279 262.959 42.7198 262.46 39.4985C261.383 32.5603 256.205 28.4767 249.152 26.524C243.496 24.958 230.677 22.6485 224.362 22.4305C219.204 22.2422 208.081 21.8061 202.065 22.4801C191.75 23.6397 178.233 27.8324 172.127 30.0625C161.114 34.0867 140.503 45.3464 136.702 47.4378C136.373 47.6261 136.214 48.0226 136.353 48.3695C137.69 51.7197 137.77 55.2285 137.58 57.528C137.331 60.5411 135.665 65.3781 135.336 70.1754C135.007 74.9727 135.835 77.7777 136.084 81.6631L136.044 81.6532ZM199.861 30.8555C199.861 32.5206 198.274 33.8686 196.329 33.8686C194.384 33.8686 192.798 32.5206 192.798 30.8555C192.798 29.1903 194.384 27.8423 196.329 27.8423C198.274 27.8423 199.861 29.1903 199.861 30.8555ZM223.663 55.3573C223.663 53.4443 225.419 51.8882 227.574 51.8882C229.729 51.8882 231.485 53.4443 231.485 55.3573C231.485 57.2703 229.729 58.8264 227.574 58.8264C225.419 58.8264 223.663 57.2703 223.663 55.3573ZM206.066 29.7354C208.35 23.3721 221.129 25.7906 229.489 28.1694C237.181 30.35 243.755 35.9402 243.755 40.1527C243.755 45.9411 237.271 47.7748 229.28 47.7748C214.555 47.7748 204.639 33.7001 206.066 29.7354ZM193.496 86.2621C191.082 84.478 188.029 81.1278 185.036 78.8382C182.043 76.5486 173.245 71.0872 173.245 71.0872C173.245 71.0872 162.929 65.4475 159.438 63.7922C155.946 62.1369 145.541 57.5082 144.214 57.0126C144.214 57.0126 142.957 56.3287 142.149 55.9322C140.992 55.3672 139.805 53.6822 139.366 52.5523C138.738 50.9367 139.236 49.2616 139.805 48.4587C140.364 47.6559 142.678 46.7242 144.115 46.0403C144.115 46.0403 149.791 43.5921 151.856 42.6009C153.911 41.6097 160.216 38.8642 163.229 37.6748C165.882 36.6142 174.342 34.6517 178.003 34.7012C183.021 34.7706 190.154 36.5151 195.561 37.764C200.968 39.0029 209.148 42.7 212.62 45.8619C216.59 49.4697 218.197 52.8893 219.523 55.8628C220.85 58.8363 222.017 62.4739 222.267 67.5983C222.516 72.7227 219.523 78.9274 219.523 78.9274C219.523 78.9274 216.88 83.3679 215.443 84.8547C214.007 86.3414 211.513 88.4427 209.198 89.1564C206.894 89.87 204.021 90.435 200.778 89.6222C197.536 88.8194 195.86 87.9868 193.516 86.2621H193.496ZM137.79 65.6953C138.538 61.4828 138.538 58.5489 140.164 58.8363C141.79 59.1238 158.869 67.3604 165.513 71.0278C171.08 74.1004 184.049 81.7027 189.087 86.6586C190.613 88.1652 191.181 90.9008 191.79 93.3094C192.458 95.9558 193.496 101.368 193.705 105.134C193.815 107.116 193.875 112.33 192.788 115.175C191.71 118.029 190.084 121.746 187.71 123.61C185.336 125.473 180.467 128.694 176.227 130.558C171.988 132.421 166.74 134.156 163.249 133.908C159.757 133.66 155.637 132.044 153.512 130.31C151.387 128.575 148.145 125.602 146.649 122.123C145.152 118.654 143.666 114.094 142.449 108.524C141.571 104.51 139.825 93.7851 139.456 89.1663C139.087 84.5474 138.329 78.977 137.79 75.3691C137.361 72.5046 137.042 69.9177 137.79 65.6953Z" fill="black"/>
<path d="M164.645 6.11553C164.057 6.11553 163.309 6.54173 162.9 7.08688C162.81 7.20582 162.7 7.29502 162.55 7.33467C156.116 9.09896 149.272 14.9072 142.189 24.6307C138.458 29.755 135.585 34.7506 134.079 37.5258C133.929 37.8034 133.6 37.9322 133.291 37.843C132.692 37.6844 132.034 37.5952 131.355 37.5952C130.877 37.5952 130.009 37.8827 129.769 37.4664C127.624 33.7098 120.94 12.6672 108.71 2.7158C108.58 2.61668 108.53 2.45809 108.53 2.28959C108.53 1.57595 108.111 0.703713 107.612 0.317155C106.924 -0.218079 105.936 -0.10905 105.388 0.574861C104.849 1.25877 105.288 2.19047 105.976 2.72571C106.435 3.08253 107.074 3.3898 107.612 3.36006C107.782 3.36006 107.952 3.36997 108.081 3.479C119.723 12.9447 126.836 31.777 128.802 37.5358C128.901 37.8232 128.752 38.1305 128.482 38.2692C126.726 39.1712 125.639 40.8364 126.447 42.6205C126.697 43.1557 126.916 43.8396 127.136 44.583C127.415 45.5147 127.215 46.5059 126.657 47.2988C125.729 48.5973 124.921 50.312 124.701 51.5411C124.372 53.4441 124.532 57.0817 125.2 60.7193C125.869 64.3569 127.285 68.0738 127.614 70.8095C127.944 73.5352 127.944 85.5284 127.864 89.3246C127.784 93.1307 127.445 108.92 127.694 111.319C127.944 113.717 128.612 116.443 129.111 117.434C129.61 118.426 130.477 119.169 131.475 119.169C132.473 119.169 133.341 118.426 133.839 117.434C134.338 116.443 135.007 113.717 135.256 111.319C135.505 108.92 135.176 93.1307 135.086 89.3246C135.007 85.5185 135.007 73.5352 135.336 70.8095C135.665 68.0838 137.082 64.3569 137.75 60.7193C138.418 57.0817 138.578 53.4441 138.249 51.5411C138.029 50.312 137.221 48.5973 136.293 47.2988C135.735 46.5059 135.535 45.5147 135.815 44.583C136.034 43.8396 136.254 43.1557 136.503 42.6205C137.211 41.0544 136.543 39.5875 135.136 38.6459C134.917 38.4972 134.827 38.2296 134.957 37.9917C138.528 31.4301 149.901 12.2112 162.381 8.39523C162.59 8.33576 162.82 8.36549 162.979 8.51417C163.398 8.89081 164.107 9.09896 164.665 9.09896C165.503 9.09896 166.182 8.42496 166.182 7.59238C166.182 6.75979 165.503 6.08579 164.665 6.08579L164.645 6.11553Z" fill="black"/>
</g>
<defs>
<clipPath id="clip0_683_2457">
<rect width="262" height="146" fill="white" transform="translate(0.5)"/>
</clipPath>
</defs>
</svg>
