<svg width="22" height="22" viewBox="0 0 22 22" fill="none" xmlns="http://www.w3.org/2000/svg">
<rect width="22" height="22" rx="11" fill="#F1F2F7"/>
<path d="M5.75 8.0835H6.78824C6.85399 8.0835 6.88686 8.0835 6.9165 8.08394C8.63899 8.10947 10.1516 9.23494 10.6711 10.8774C10.68 10.9057 10.6894 10.9372 10.7083 11.0002V11.0002C10.7272 11.0631 10.7367 11.0946 10.7456 11.1229C11.265 12.7654 12.7777 13.8909 14.5002 13.9164C14.5298 13.9168 14.5627 13.9168 14.6284 13.9168H16.25M16.25 13.9168L14.5 12.1668M16.25 13.9168L14.5 15.6668" stroke="#999DAC" stroke-linecap="round" stroke-linejoin="round"/>
<path fill-rule="evenodd" clip-rule="evenodd" d="M14.8536 5.97994C14.6583 5.78468 14.3417 5.78468 14.1464 5.97994C13.9512 6.1752 13.9512 6.49179 14.1464 6.68705L15.0429 7.5835H14.6284H14.6236C14.5624 7.5835 14.5261 7.5835 14.4928 7.58399C12.9174 7.60734 11.4981 8.44847 10.7083 9.75507C10.8901 10.0557 11.0385 10.381 11.1478 10.7267C11.1579 10.7585 11.1683 10.7933 11.1858 10.8518L11.1872 10.8565C11.2066 10.921 11.2148 10.9483 11.2223 10.9721C11.2253 10.9815 11.2283 10.9908 11.2313 11.0002C11.6941 9.57821 13.0102 8.60608 14.5076 8.58388C14.5326 8.58351 14.561 8.5835 14.6284 8.5835H15.0429L14.1464 9.47994C13.9512 9.6752 13.9512 9.99179 14.1464 10.187C14.3417 10.3823 14.6583 10.3823 14.8536 10.187L16.6036 8.43705C16.6973 8.34328 16.75 8.2161 16.75 8.0835C16.75 7.95089 16.6973 7.82371 16.6036 7.72994L14.8536 5.97994ZM10.7083 12.2453C10.5266 11.9446 10.3782 11.6193 10.2689 11.2736C10.2588 11.2418 10.2484 11.207 10.2308 11.1484L10.2294 11.1438C10.2101 11.0793 10.2019 11.0521 10.1943 11.0282C10.1914 11.0188 10.1884 11.0095 10.1853 11.0002C9.72259 12.4221 8.40644 13.3942 6.90909 13.4164C6.88405 13.4168 6.85563 13.4168 6.78824 13.4168H5.75C5.47386 13.4168 5.25 13.6407 5.25 13.9168C5.25 14.193 5.47386 14.4168 5.75 14.4168H6.78824H6.79305H6.7934C6.85437 14.4168 6.89059 14.4168 6.92391 14.4163C8.49922 14.393 9.91853 13.5519 10.7083 12.2453Z" fill="#999DAC"/>
</svg>
