<svg width="28" height="28" viewBox="0 0 28 28" fill="none" xmlns="http://www.w3.org/2000/svg">
<rect width="28" height="28" rx="14" fill="#F1F2F7"/>
<path fill-rule="evenodd" clip-rule="evenodd" d="M11.5458 6.13533L12.902 5.92221C16.1226 5.41612 17.7329 5.16308 18.7831 6.0612C19.8334 6.95932 19.8334 8.58937 19.8334 11.8495V13.3997H14.4151L16.9686 10.2078C17.1756 9.94905 17.1337 9.57147 16.8749 9.36447C16.6161 9.15746 16.2386 9.19942 16.0316 9.45817L12.6982 13.6248C12.5229 13.844 12.5229 14.1553 12.6982 14.3745L16.0316 18.5411C16.2386 18.7999 16.6161 18.8418 16.8749 18.6348C17.1337 18.4278 17.1756 18.0503 16.9686 17.7915L14.4151 14.5997H19.8334V16.1498C19.8334 19.4099 19.8334 21.04 18.7831 21.9381C17.7329 22.8362 16.1226 22.5832 12.902 22.0771L11.5458 21.864C9.93306 21.6106 9.1267 21.4838 8.64672 20.9226C8.16675 20.3613 8.16675 19.545 8.16675 17.9125V10.0868C8.16675 8.45432 8.16675 7.63805 8.64672 7.07676C9.1267 6.51547 9.93306 6.38876 11.5458 6.13533Z" fill="#999DAC"/>
</svg>
