<svg width="327" height="52" viewBox="0 0 327 52" fill="none" xmlns="http://www.w3.org/2000/svg">
<rect width="327" height="52" rx="26" fill="#FDE500"/>
<path fill-rule="evenodd" clip-rule="evenodd" d="M92.5001 18C87.7908 18 83.9736 20.9647 83.9736 24.6212C83.9736 26.8953 85.45 28.9 87.6983 30.0923L86.7523 33.5662C86.6687 33.8731 87.018 34.1178 87.2861 33.9399L91.4327 31.1888C91.7826 31.2227 92.1382 31.2425 92.5001 31.2425C97.209 31.2425 101.026 28.2779 101.026 24.6212C101.026 20.9647 97.209 18 92.5001 18Z" fill="black"/>
<path d="M118.87 20.5781C118.865 22.1875 118.688 23.6198 118.339 24.875C117.995 26.1302 117.357 27.2995 116.425 28.3828C115.493 29.4661 114.177 30.4323 112.479 31.2812L111.386 29.7812C112.552 29.2031 113.506 28.5807 114.245 27.9141C114.99 27.2422 115.568 26.5052 115.979 25.7031L111.776 26.0938L111.526 24.3906L116.581 24.0859C116.732 23.4714 116.831 22.8333 116.878 22.1719H112.276V20.5781H118.87ZM122.667 24.6719H124.683V26.3125H122.667V33.4062H120.667V19.2188H122.667V24.6719ZM132.698 20.5781C132.693 22.1875 132.516 23.6198 132.167 24.875C131.823 26.1302 131.185 27.2995 130.253 28.3828C129.321 29.4661 128.006 30.4323 126.308 31.2812L125.214 29.7812C126.381 29.2031 127.334 28.5807 128.073 27.9141C128.818 27.2422 129.396 26.5052 129.808 25.7031L125.604 26.0938L125.354 24.3906L130.409 24.0859C130.56 23.4714 130.659 22.8333 130.706 22.1719H126.104V20.5781H132.698ZM136.495 24.6719H138.511V26.3125H136.495V33.4062H134.495V19.2188H136.495V24.6719ZM145.589 19.9531C146.604 19.9531 147.519 20.1146 148.331 20.4375C149.144 20.7604 149.782 21.2188 150.245 21.8125C150.709 22.401 150.943 23.0781 150.948 23.8438C150.943 24.5417 150.756 25.1667 150.386 25.7188C150.016 26.2708 149.5 26.7188 148.839 27.0625C148.183 27.401 147.427 27.6198 146.573 27.7188V30.1406H152.12V31.7812H139.104V30.1406H144.589V27.7109C143.74 27.6172 142.987 27.3984 142.331 27.0547C141.675 26.7109 141.162 26.2656 140.792 25.7188C140.427 25.1667 140.245 24.5417 140.245 23.8438C140.245 23.0781 140.474 22.401 140.933 21.8125C141.396 21.2188 142.034 20.7604 142.847 20.4375C143.659 20.1146 144.573 19.9531 145.589 19.9531ZM145.589 21.5469C144.927 21.5469 144.341 21.6406 143.831 21.8281C143.321 22.0104 142.922 22.276 142.636 22.625C142.354 22.974 142.214 23.3802 142.214 23.8438C142.214 24.3333 142.354 24.7552 142.636 25.1094C142.922 25.4583 143.318 25.7266 143.823 25.9141C144.334 26.0964 144.922 26.1875 145.589 26.1875C146.261 26.1875 146.849 26.0964 147.354 25.9141C147.865 25.7318 148.261 25.4635 148.542 25.1094C148.828 24.7552 148.974 24.3333 148.979 23.8438C148.974 23.375 148.828 22.9688 148.542 22.625C148.261 22.276 147.865 22.0104 147.354 21.8281C146.844 21.6406 146.256 21.5469 145.589 21.5469ZM165.948 31.8594H152.933V30.2188H158.417V28.0781H154.433V23.2969H162.479V21.7344H154.417V20.1406H164.448V24.8594H156.433V26.4531H164.776V28.0781H160.401V30.2188H165.948V31.8594ZM183.464 31.8594H170.448V30.2188H175.933V28.0781H171.948V23.2969H179.995V21.7344H171.933V20.1406H181.964V24.8594H173.948V26.4531H182.292V28.0781H177.917V30.2188H183.464V31.8594ZM195.651 22.2344C195.651 23.099 195.641 23.8359 195.62 24.4453C195.604 25.0547 195.56 25.7474 195.487 26.5234C195.414 27.2995 195.297 28.1458 195.136 29.0625L193.12 28.8906C193.282 28.0677 193.401 27.2865 193.479 26.5469C193.558 25.8073 193.607 25.1406 193.628 24.5469C193.649 23.9531 193.662 23.2396 193.667 22.4062V22.2344V22.125H185.62V20.5312H195.651V22.2344ZM197.245 31.5781H184.276V29.9375H197.245V31.5781ZM210.011 29.4531H208.011V19.2344H210.011V29.4531ZM210.386 33.1875H200.479V28.4219H202.495V31.5938H210.386V33.1875ZM202.214 20.1406C202.938 20.1406 203.594 20.2943 204.183 20.6016C204.776 20.9089 205.245 21.3359 205.589 21.8828C205.933 22.4245 206.104 23.0365 206.104 23.7188C206.104 24.4115 205.933 25.0339 205.589 25.5859C205.25 26.1328 204.784 26.5599 204.19 26.8672C203.597 27.1745 202.938 27.3281 202.214 27.3281C201.49 27.3281 200.831 27.1745 200.237 26.8672C199.644 26.5599 199.175 26.1328 198.831 25.5859C198.493 25.0339 198.323 24.4115 198.323 23.7188C198.323 23.0365 198.495 22.4245 198.839 21.8828C199.183 21.3359 199.649 20.9089 200.237 20.6016C200.831 20.2943 201.49 20.1406 202.214 20.1406ZM202.214 21.875C201.844 21.8698 201.511 21.9427 201.214 22.0938C200.917 22.2396 200.685 22.4531 200.519 22.7344C200.352 23.0156 200.271 23.3438 200.276 23.7188C200.271 24.1042 200.352 24.4401 200.519 24.7266C200.685 25.0078 200.914 25.224 201.206 25.375C201.503 25.5208 201.839 25.5938 202.214 25.5938C202.578 25.5938 202.904 25.5208 203.19 25.375C203.482 25.224 203.711 25.0078 203.878 24.7266C204.05 24.4401 204.136 24.1042 204.136 23.7188C204.136 23.3438 204.05 23.0156 203.878 22.7344C203.711 22.4531 203.482 22.2396 203.19 22.0938C202.899 21.9427 202.573 21.8698 202.214 21.875ZM226.839 24.7812H228.933V26.4219H226.839V33.4375H224.87V19.2188H226.839V24.7812ZM223.901 22.9375H215.542V21.3438H218.761V19.4375H220.761V21.3438H223.901V22.9375ZM219.761 23.7344C220.448 23.7344 221.065 23.8802 221.612 24.1719C222.164 24.4583 222.597 24.8594 222.909 25.375C223.227 25.8906 223.386 26.474 223.386 27.125C223.386 27.776 223.227 28.3594 222.909 28.875C222.597 29.3906 222.164 29.7943 221.612 30.0859C221.065 30.3724 220.448 30.5156 219.761 30.5156C219.068 30.5156 218.446 30.3724 217.894 30.0859C217.341 29.7943 216.907 29.3906 216.589 28.875C216.276 28.3594 216.12 27.776 216.12 27.125C216.12 26.474 216.276 25.8906 216.589 25.375C216.907 24.8594 217.341 24.4583 217.894 24.1719C218.446 23.8802 219.068 23.7344 219.761 23.7344ZM219.761 25.3438C219.427 25.349 219.128 25.4245 218.862 25.5703C218.602 25.7161 218.396 25.9219 218.245 26.1875C218.099 26.4531 218.026 26.7656 218.026 27.125C218.026 27.4896 218.099 27.8047 218.245 28.0703C218.396 28.3359 218.602 28.5391 218.862 28.6797C219.128 28.8151 219.427 28.8802 219.761 28.875C220.094 28.8802 220.391 28.8151 220.651 28.6797C220.912 28.5391 221.115 28.3359 221.261 28.0703C221.407 27.8047 221.479 27.4896 221.479 27.125C221.479 26.7656 221.407 26.4531 221.261 26.1875C221.115 25.9219 220.912 25.7161 220.651 25.5703C220.391 25.4245 220.094 25.349 219.761 25.3438ZM241.401 33.4375H239.386V19.2188H241.401V33.4375ZM237.136 20.7031C237.136 22.224 236.93 23.6068 236.519 24.8516C236.112 26.0964 235.425 27.2396 234.456 28.2812C233.487 29.3177 232.183 30.224 230.542 31L229.495 29.4062C230.709 28.8333 231.709 28.1953 232.495 27.4922C233.287 26.7891 233.891 26.0104 234.308 25.1562C234.729 24.2969 234.995 23.3333 235.104 22.2656H230.261V20.7031H237.136Z" fill="black"/>
</svg>
